<svg xmlns="http://www.w3.org/2000/svg" viewBox="0 0 534.53 72.2"><defs><style>.cls-1,.cls-2,.cls-5{fill:#d1162f;}.cls-2{font-size:18.55px;font-family:DINCondensed-Bold, DIN Condensed;font-weight:700;}.cls-3{fill:#d01630;}.cls-4{fill:none;stroke:#d1162f;stroke-miterlimit:10;}.cls-5{font-size:54.92px;font-family:Avenir-Black, Avenir;}</style></defs><title>review balk 2</title><g id="Laag_2" data-name="Laag 2"><g id="Laag_1-2" data-name="Laag 1"><polygon class="cls-1" points="150.93 20.02 162.98 21.86 154.53 33.23 156.91 48.76 146.02 41.78 135.44 49.53 137.16 33.85 128.25 23.11 140.2 20.41 145.26 6.01 150.93 20.02"/><polygon class="cls-1" points="194.33 19.32 206.38 21.16 197.93 32.53 200.31 48.06 189.42 41.08 178.84 48.83 180.56 33.15 171.64 22.41 183.6 19.7 188.66 5.31 194.33 19.32"/><polygon class="cls-1" points="238.42 18.73 250.47 20.57 242.02 31.94 244.4 47.47 233.51 40.49 222.94 48.24 224.66 32.56 215.74 21.82 227.69 19.11 232.76 4.72 238.42 18.73"/><polygon class="cls-1" points="283.42 19.04 295.47 20.88 287.02 32.25 289.4 47.78 278.51 40.8 267.93 48.55 269.65 32.87 260.74 22.13 272.69 19.43 277.75 5.03 283.42 19.04"/><polygon class="cls-1" points="328.53 18.64 340.58 20.49 332.13 31.85 334.51 47.39 323.62 40.41 313.04 48.16 314.76 32.48 305.85 21.74 317.8 19.03 322.86 4.64 328.53 18.64"/><text class="cls-2" transform="translate(500.91 35.14) scale(1.18 1)">1 km</text><path class="cls-3" d="M33.72,19.41a8.77,8.77,0,0,0-6.66-5.87A8.68,8.68,0,0,0,17.34,20a8.69,8.69,0,0,0-9.74-6.58A8.77,8.77,0,0,0,.93,19.32a11.56,11.56,0,0,0,1,8.53,29,29,0,0,0,5.34,7c3.38,3.5,10,11.32,10.1,11.19.09.1,6.65-7.61,10-11.11a29,29,0,0,0,5.34-7A11.55,11.55,0,0,0,33.72,19.41Z"/><path class="cls-4" d="M33.72,19.41a8.77,8.77,0,0,0-6.66-5.87A8.68,8.68,0,0,0,17.34,20a8.69,8.69,0,0,0-9.74-6.58A8.77,8.77,0,0,0,.93,19.32a11.56,11.56,0,0,0,1,8.53,29,29,0,0,0,5.34,7c3.38,3.5,10,11.32,10.1,11.19.09.1,6.65-7.61,10-11.11a29,29,0,0,0,5.34-7A11.55,11.55,0,0,0,33.72,19.41Z"/><text class="cls-5" transform="translate(415.19 47.07) scale(0.68 1)">€</text><text class="cls-5" transform="translate(392.08 47.1) scale(0.68 1)">€</text><text class="cls-5" transform="translate(440.9 46.91) scale(0.68 1)">€</text></g></g></svg>